<?xml version="1.0" standalone="no"?>
<!DOCTYPE svg PUBLIC "-//W3C//DTD SVG 20010904//EN"
 "http://www.w3.org/TR/2001/REC-SVG-20010904/DTD/svg10.dtd">
<svg version="1.0" xmlns="http://www.w3.org/2000/svg"
 width="249.000000pt" height="249.000000pt" viewBox="0 0 249.000000 249.000000"
 preserveAspectRatio="xMidYMid meet">
<metadata>
Created by potrace 1.11, written by Peter Selinger 2001-2013
</metadata>
<g transform="translate(0.000000,249.000000) scale(0.100000,-0.100000)"
fill="#000000" stroke="none">
<path d="M305 2288 c-92 -90 -171 -164 -175 -166 -5 -2 12 -47 38 -100 103
-214 140 -350 136 -502 -1 -36 -2 -80 -3 -97 -1 -18 -4 -32 -8 -31 -5 0 -17
-2 -28 -7 -11 -4 -46 -17 -77 -29 -55 -20 -58 -23 -58 -56 -1 -56 -2 -313 -1
-337 1 -17 12 -25 54 -39 45 -14 52 -20 53 -43 4 -107 53 -200 167 -312 61
-60 154 -127 232 -167 46 -23 76 -36 200 -87 50 -21 117 -51 150 -68 90 -45
127 -72 233 -171 l32 -30 43 41 c115 110 194 156 464 268 281 116 484 317 500
494 6 59 6 59 47 72 22 7 46 18 51 24 13 15 11 373 -1 385 -5 5 -41 22 -79 38
-67 27 -70 30 -76 68 -7 43 -3 191 6 239 23 117 70 247 137 378 l31 62 -174
167 -173 168 -778 0 -777 0 -166 -162z"/>
</g>
</svg>
